# xmcd
#
# Track frame offsets: 
#        150
#        22057
#        46512
#        78040
#        91227
#        111965
#        132367
#        155357
#        179252
#        197115
#
# Disc length: 2891 seconds
#
# Revision: 10
# Processed by: cddbd v1.5.2PL0 Copyright (c) Steve Scherf et al.
# Submitted via: ExactAudioCopyFreeDBPlugin 1.0
#
DISCID=740b490a
DTITLE=Kevin Kern - Summer Daydreams
DYEAR=2003
DGENRE=New Age
TTITLE0=Le Jardin
TTITLE1=Once in the Long Ago
TTITLE2=Twilight's Embrace
TTITLE3=Water Tapestry
TTITLE4=Pan's Return
TTITLE5=Pastel Reflections
TTITLE6=Whisperings
TTITLE7=Summer Daydreams
TTITLE8=Dance of the Dragonfly
TTITLE9=Return to Love
EXTD=YEAR: 2003
EXTT0=
EXTT1=
EXTT2=
EXTT3=
EXTT4=
EXTT5=
EXTT6=
EXTT7=
EXTT8=
EXTT9=
PLAYORDER=
